<svg width="75" height="74" viewBox="0 0 75 74" fill="none" xmlns="http://www.w3.org/2000/svg">
<path d="M37.5 0C32.5754 0 27.6991 0.969966 23.1494 2.85452C18.5997 4.73907 14.4657 7.5013 10.9835 10.9835C3.95088 18.0161 0 27.5544 0 37.5C0 54.075 10.7625 68.1375 25.65 73.125C27.525 73.425 28.125 72.2625 28.125 71.25C28.125 70.3875 28.125 68.025 28.125 64.9125C17.7375 67.1625 15.525 59.8875 15.525 59.8875C13.8 55.5375 11.3625 54.375 11.3625 54.375C7.95 52.05 11.625 52.125 11.625 52.125C15.375 52.3875 17.3625 55.9875 17.3625 55.9875C20.625 61.6875 26.1375 60 28.275 59.1C28.6125 56.6625 29.5875 55.0125 30.6375 54.075C22.3125 53.1375 13.575 49.9125 13.575 35.625C13.575 31.4625 15 28.125 17.4375 25.4625C17.0625 24.525 15.75 20.625 17.8125 15.5625C17.8125 15.5625 20.9625 14.55 28.125 19.3875C31.0875 18.5625 34.3125 18.15 37.5 18.15C40.6875 18.15 43.9125 18.5625 46.875 19.3875C54.0375 14.55 57.1875 15.5625 57.1875 15.5625C59.25 20.625 57.9375 24.525 57.5625 25.4625C60 28.125 61.425 31.4625 61.425 35.625C61.425 49.95 52.65 53.1 44.2875 54.0375C45.6375 55.2 46.875 57.4875 46.875 60.975C46.875 66 46.875 70.05 46.875 71.25C46.875 72.2625 47.475 73.4625 49.3875 73.125C64.275 68.1 75 54.075 75 37.5C75 32.5754 74.03 27.6991 72.1455 23.1494C70.2609 18.5997 67.4987 14.4657 64.0165 10.9835C60.5343 7.5013 56.4003 4.73907 51.8506 2.85452C47.3009 0.969966 42.4246 0 37.5 0Z" fill="white"/>
</svg>
