<svg width="40" height="40" viewBox="0 0 40 40" fill="none" xmlns="http://www.w3.org/2000/svg">
<path d="M32.7244 5.88081L27.4652 9.57298L29.3569 15.3967L23.8898 11.9519L18.4228 15.3967L20.3144 9.57298L15.0552 5.88081L21.6864 5.70953L23.8898 0L26.0933 5.70953L32.7244 5.88081ZM40 19.0318L36.5909 21.4107L37.8173 25.179L34.2835 22.9523L30.7496 25.179L31.9761 21.4107L28.567 19.0318L32.8492 18.9366L34.2835 15.2254L35.7178 18.9366L40 19.0318ZM35.2605 28.4525C36.9858 28.3002 38.8359 30.546 37.7342 31.9734C37.069 32.8298 36.3622 33.6291 35.4892 34.3904C27.3613 41.8699 14.2029 41.8699 6.09588 34.3904C-2.03196 26.968 -2.03196 14.9019 6.09588 7.47948C6.92737 6.71821 7.80044 6.03307 8.73587 5.42405C10.2949 4.41537 12.7478 6.10919 12.5815 7.68883C12.0203 13.1319 14.0159 18.7843 18.5891 22.9523C23.1415 27.1393 29.2945 28.9663 35.2605 28.4525ZM31.8514 32.2969C25.9686 31.9924 20.1481 29.7657 15.6373 25.6929C11.1264 21.5249 8.71508 16.177 8.38249 10.81C2.54125 16.786 2.76991 25.9593 9.02689 31.7069C15.3047 37.4355 25.3242 37.6448 31.8514 32.2969Z" fill="black"/>
</svg>
