<svg width="106" height="111" viewBox="0 0 106 111" fill="none" xmlns="http://www.w3.org/2000/svg">
<path fill-rule="evenodd" clip-rule="evenodd" d="M67.6969 34.8817H38.3031C23.3977 34.8817 15.945 34.8817 11.7586 39.4458C7.57228 44.0099 8.55725 51.0614 10.5272 65.1639L12.3953 78.5376C13.9402 89.5969 14.7126 95.1265 18.6752 98.438C22.6378 101.75 28.4822 101.75 40.1711 101.75H65.8287C77.5178 101.75 83.3624 101.75 87.3251 98.438C91.2877 95.1265 92.0597 89.5969 93.6047 78.5376L95.4729 65.1639C97.4428 51.0614 98.4277 44.0098 94.2415 39.4458C90.055 34.8817 82.6023 34.8817 67.6969 34.8817ZM64.4326 47.0131C58.993 44.5796 52.7474 48.2406 52.3848 54.0774C52.3689 54.3322 52.3689 54.6504 52.3689 55.0343V55.1587C52.3689 55.2956 52.3689 55.4177 52.372 55.5356L52.3702 71.7888C50.6994 70.8439 48.7596 70.3032 46.6904 70.3032C40.4185 70.3032 35.3334 75.2719 35.3334 81.4014C35.3334 87.5314 40.4185 92.4995 46.6904 92.4995C52.9625 92.4995 58.0474 87.5309 58.0479 81.4014L58.0496 63.2765L62.1483 65.4123C62.4945 65.5931 62.7825 65.743 63.0197 65.8494C68.4597 68.283 74.7053 64.6219 75.0679 58.7851C75.0834 58.5303 75.0834 58.2121 75.0834 57.8278V57.7043C75.0834 57.547 75.0834 57.4101 75.079 57.2765C74.9853 54.3928 73.3702 51.7625 70.8107 50.3246C70.6919 50.258 70.5682 50.1938 70.4264 50.1198L65.304 47.4502C64.9577 47.2694 64.6702 47.1195 64.4326 47.0131Z" fill="white"/>
<path d="M62.0688 52.0595C60.2549 51.2478 58.1737 52.4688 58.0527 54.4136C58.0492 54.4746 58.0479 54.6009 58.0479 55.1254C58.0479 55.3335 58.0478 55.3761 58.0492 55.4098C58.0805 56.3704 58.6185 57.2473 59.4718 57.7265C59.5014 57.7431 59.5398 57.7635 59.7275 57.8611L64.7378 60.4724C65.2117 60.7193 65.3265 60.7776 65.3835 60.803C67.1974 61.6147 69.279 60.3937 69.3996 58.4489C69.4035 58.3879 69.4049 58.2616 69.4049 57.7367C69.4049 57.529 69.4044 57.4865 69.4035 57.4527C69.3722 56.4921 68.8338 55.6156 67.9809 55.136L62.0688 52.0595Z" fill="#FF5E5B"/>
<path d="M46.6903 75.8528C49.827 75.8528 52.3688 78.3373 52.3688 81.4014C52.3688 84.4655 49.827 86.95 46.6903 86.95C43.5539 86.95 41.0118 84.4655 41.0118 81.4014C41.0118 78.3373 43.5539 75.8528 46.6903 75.8528Z" fill="#FF5E5B"/>
<path opacity="0.4" d="M37.5861 9.25003H68.4146C69.4415 9.24976 70.229 9.24957 70.9171 9.32006C75.8099 9.82127 79.8145 12.9018 81.5131 17.0513H24.4879C26.1862 12.9018 30.191 9.82127 35.0839 9.32006C35.7721 9.24957 36.5593 9.24976 37.5861 9.25003Z" fill="white"/>
<path opacity="0.7" d="M27.8722 21.8423C21.7303 21.8423 16.6941 25.7261 15.0135 30.8786C14.9784 30.986 14.9449 31.0939 14.9127 31.2024C16.6712 30.6448 18.5013 30.2805 20.354 30.0318C25.1256 29.3912 31.1559 29.3915 38.1609 29.3919H68.601C75.6058 29.3915 81.6364 29.3912 86.4077 30.0318C88.2605 30.2805 90.0907 30.6448 91.849 31.2024C91.8168 31.0939 91.7832 30.986 91.7483 30.8786C90.0678 25.7261 85.0314 21.8423 78.8896 21.8423H27.8722Z" fill="white"/>
</svg>
