<svg width="56" height="57" viewBox="0 0 56 57" fill="none" xmlns="http://www.w3.org/2000/svg">
<path d="M6.49091 46.8695L10.08 50.5227L14.6618 45.885L11.0473 42.2059M28 12.9545C19.5745 12.9545 12.7273 19.9241 12.7273 28.5C12.7273 37.0759 19.5745 44.0455 28 44.0455C36.4255 44.0455 43.2727 37.0759 43.2727 28.5C43.2727 19.8982 36.4255 12.9545 28 12.9545ZM48.3636 31.0909H56V25.9091H48.3636M41.3382 45.885L45.92 50.5227L49.5091 46.8695L44.9527 42.2059M49.5091 10.3636L45.92 6.73636L41.3382 11.3741L44.9527 15.0532M30.5455 0H25.4545V7.77273H30.5455M14.6618 11.3741L10.08 6.73636L6.49091 10.3636L11.0473 15.0532L14.6618 11.3741ZM0 31.0909H7.63636V25.9091H0M30.5455 49.2273H25.4545V57H30.5455" fill="white"/>
</svg>
