<svg width="57" height="57" viewBox="0 0 57 57" fill="none" xmlns="http://www.w3.org/2000/svg">
<path d="M15.0533 35.2556C15.3316 32.9508 16.2769 31.6605 18.0581 30.3377C20.6069 28.5461 23.7906 29.5595 23.7906 29.5595V23.5476C24.5647 23.5276 25.339 23.5736 26.1044 23.6846V31.4214C26.1044 31.4214 22.9217 30.4081 20.3731 32.2006C18.5927 33.5224 17.6455 34.8138 17.3681 37.1186C17.3594 38.3701 17.5942 40.006 18.6759 41.4205C18.4083 41.2833 18.1358 41.1271 17.8581 40.9518C15.4756 39.3519 15.0417 36.9519 15.0533 35.2556ZM39.2502 12.4313C37.4969 10.5101 36.8338 8.5703 36.5942 7.20764H38.7997C38.7997 7.20764 38.3599 10.7806 41.5649 14.2942L41.6095 14.3415C40.7456 13.7981 39.9534 13.1567 39.2502 12.4313ZM49.875 17.8782V25.4594C49.875 25.4594 47.0606 25.3493 44.9778 24.8194C42.0694 24.0782 40.2001 22.9416 40.2001 22.9416C40.2001 22.9416 38.9089 22.1312 38.8045 22.0747V37.7299C38.8045 38.6017 38.5658 40.7785 37.838 42.5942C36.8879 44.9694 35.4218 46.5284 35.1521 46.8471C35.1521 46.8471 33.3689 48.9545 30.2228 50.3738C27.3871 51.6539 24.8972 51.6215 24.153 51.6539C24.153 51.6539 19.8492 51.8244 15.9763 49.3075C15.1388 48.7526 14.3571 48.1244 13.6412 47.4306L13.6605 47.4445C17.5343 49.9614 21.8372 49.7909 21.8372 49.7909C22.5825 49.7585 25.0722 49.7909 27.907 48.5107C31.0502 47.0916 32.8363 44.9842 32.8363 44.9842C33.1031 44.6656 34.576 43.1064 35.5222 40.7304C36.2481 38.9157 36.4887 36.7378 36.4887 35.8662V20.2127C36.5931 20.2701 37.8835 21.0806 37.8835 21.0806C37.8835 21.0806 39.7538 22.2183 42.662 22.9584C44.7457 23.4883 47.5594 23.5985 47.5594 23.5985V17.6578C48.522 17.8736 49.3426 17.932 49.875 17.8782Z" fill="#EE1D52"/>
<path d="M47.561 17.6578V23.5966C47.561 23.5966 44.7473 23.4863 42.6636 22.9566C39.7554 22.2154 37.885 21.0788 37.885 21.0788C37.885 21.0788 36.5947 20.2683 36.4903 20.2108V35.868C36.4903 36.7397 36.2516 38.9175 35.5238 40.7322C34.5737 43.1084 33.1076 44.6673 32.8379 44.986C32.8379 44.986 31.0538 47.0934 27.9086 48.5127C25.0738 49.7929 22.5841 49.7605 21.8388 49.7929C21.8388 49.7929 17.5359 49.9634 13.6621 47.4465L13.6428 47.4326C13.2338 47.0364 12.8488 46.6183 12.4897 46.1802C11.2535 44.6729 10.4958 42.8905 10.3054 42.382V42.3756C9.99899 41.4919 9.35528 39.3696 9.44324 37.314C9.59885 33.6874 10.8747 31.4613 11.212 30.9036C12.1053 29.383 13.2672 28.0223 14.646 26.8825C15.8627 25.8987 17.2418 25.116 18.7266 24.5665C20.3319 23.9213 22.0508 23.5754 23.7913 23.5476V29.5595C23.7913 29.5595 20.6075 28.5499 18.0597 30.3377C16.2785 31.6605 15.3332 32.9508 15.0549 35.2556C15.0433 36.9519 15.4772 39.3519 17.8577 40.9527C18.1354 41.1287 18.408 41.2849 18.6755 41.4214C19.0913 41.962 19.5975 42.4331 20.1735 42.8156C22.499 44.2876 24.4475 44.3904 26.9393 43.4344C28.6006 42.7952 29.8513 41.3548 30.4312 39.7586C30.7957 38.762 30.7909 37.7586 30.7909 36.7212V7.20764H36.5899C36.8297 8.5703 37.4926 10.5101 39.2459 12.4313C39.9492 13.1567 40.7415 13.7981 41.6052 14.3415C41.8604 14.6055 43.1652 15.9107 44.8401 16.712C45.7062 17.1262 46.6192 17.4435 47.561 17.6578Z" fill="black"/>
<path d="M7.99649 40.5355V40.5402L8.14038 40.9302C8.12385 40.8848 8.07038 40.7468 7.99649 40.5355Z" fill="#69C9D0"/>
<path d="M18.7259 24.5663C17.2411 25.116 15.862 25.8987 14.6453 26.8823C13.2661 28.0248 12.1045 29.3883 11.2122 30.9118C10.8749 31.4678 9.59911 33.6956 9.4435 37.3222C9.35554 39.3778 9.99925 41.5001 10.3056 42.3838V42.3902C10.4989 42.8943 11.2538 44.6764 12.49 46.1884C12.8491 46.6266 13.234 47.0448 13.643 47.4408C12.3326 46.5721 11.1639 45.522 10.1751 44.3245C8.94959 42.8304 8.19377 41.0666 7.99661 40.5459C7.99637 40.5422 7.99637 40.5384 7.99661 40.5349V40.5283C7.68925 39.6455 7.04362 37.5222 7.1335 35.464C7.28911 31.8374 8.56493 29.6113 8.90225 29.0536C9.79421 27.5298 10.9559 26.1662 12.3353 25.0241C13.5518 24.04 14.9309 23.2573 16.416 22.7081C17.3423 22.3397 18.3073 22.0681 19.2943 21.8976C20.7817 21.6488 22.3009 21.6271 23.7954 21.8337V23.5474C22.0533 23.5747 20.3326 23.9206 18.7259 24.5663Z" fill="#69C9D0"/>
<path d="M36.5936 7.20756H30.7944V36.7221C30.7944 37.7595 30.7944 38.76 30.435 39.7595C29.8493 41.3547 28.6033 42.7951 26.9428 43.4344C24.4503 44.3941 22.5018 44.2876 20.1773 42.8156C19.6001 42.4347 19.0927 41.9652 18.6753 41.426C20.6557 42.4385 22.4282 42.4208 24.6242 41.5762C26.2838 40.9369 27.5315 39.4964 28.1152 37.9004C28.4806 36.9036 28.4758 35.9004 28.4758 34.8637V5.34375H36.4834C36.4834 5.34375 36.3936 6.07741 36.5936 7.20756ZM47.5597 16.0153V17.6577C46.6198 17.4431 45.7085 17.1258 44.8438 16.7119C43.1689 15.9106 41.864 14.6054 41.6089 14.3414C41.905 14.5277 42.2122 14.6972 42.5289 14.849C44.5654 15.8235 46.5709 16.1144 47.5597 16.0153Z" fill="#69C9D0"/>
</svg>
