<svg width="52" height="52" viewBox="0 0 52 52" fill="none" xmlns="http://www.w3.org/2000/svg">
<path fill-rule="evenodd" clip-rule="evenodd" d="M20.631 32.7924L20.6294 18.0784L34.6791 25.4608L20.631 32.7924ZM51.48 15.5287C51.48 15.5287 50.9714 11.9201 49.413 10.3311C47.4354 8.24448 45.2189 8.23464 44.2032 8.11354C36.9265 7.58331 26.0114 7.58331 26.0114 7.58331H25.9886C25.9886 7.58331 15.0735 7.58331 7.79676 8.11354C6.77951 8.23464 4.56463 8.24448 2.58538 10.3311C1.02701 11.9201 0.519995 15.5287 0.519995 15.5287C0.519995 15.5287 0 19.7673 0 24.0042V27.9777C0 32.2163 0.519995 36.4533 0.519995 36.4533C0.519995 36.4533 1.02701 40.0618 2.58538 41.6509C4.56463 43.7375 7.16299 43.672 8.31999 43.8897C12.48 44.2923 26 44.4166 26 44.4166C26 44.4166 36.9265 44.4003 44.2032 43.87C45.2189 43.7473 47.4354 43.7375 49.413 41.6509C50.9714 40.0618 51.48 36.4533 51.48 36.4533C51.48 36.4533 52 32.2163 52 27.9777V24.0042C52 19.7673 51.48 15.5287 51.48 15.5287Z" fill="#CE1312"/>
</svg>
